<svg xmlns="http://www.w3.org/2000/svg" width="16" height="16" version="1.1" viewBox="0 0 4.233 4.233"><metadata/><g transform="matrix(1.8565 0 0 1.8565 .152 -547.29)"><circle cx="1.058" cy="295.94" r=".377" fill="#fff" fill-opacity=".4" style="paint-order:normal"/><g fill="none" stroke="#fff" stroke-linecap="round" stroke-linejoin="round"><path stroke-opacity=".22" stroke-width=".189" d="m0.6324 296.42a0.62244 0.62244 0 0 1-0.22234-0.47682 0.62244 0.62244 0 0 1 0.22234-0.47682" style="paint-order:normal"/><path stroke-opacity=".22" stroke-width=".189" d="m1.4833 296.42a0.62244 0.62244 0 0 0 0.22234-0.47682 0.62244 0.62244 0 0 0-0.22234-0.47682" style="paint-order:normal"/><path stroke-opacity=".08" stroke-width=".251" d="m0.39544 296.7a0.98443 0.98443 0 0 1-0.35165-0.75411 0.98443 0.98443 0 0 1 0.35165-0.75413" style="paint-order:normal"/><path stroke-opacity=".08" stroke-width=".251" d="m1.7211 296.7a0.98443 0.98443 0 0 0 0.35165-0.75411 0.98443 0.98443 0 0 0-0.35165-0.75413" style="paint-order:normal"/></g></g></svg>