<svg xmlns="http://www.w3.org/2000/svg" width="16" height="16" viewBox="0 0 16 16"><g fill="#202020"><path d="m 1 1 v 14 h 14 v -14 z m 1 1 h 12 v 12 h -12 z m 0 0"/><path d="m 6 11 h 1 v 1 h -1 z m 1 1 h 1 v 1 h -1 z m -1 -3 h 1 v 1 h -1 z m 1 1 h 1 v 1 h -1 z m -1 -3 h 1 v 1 h -1 z m 1 1 h 1 v 1 h -1 z m -1 -3 h 1 v 1 h -1 z m 1 1 h 1 v 1 h -1 z m -1 -3 h 1 v 1 h -1 z m 1 1 h 1 v 1 h -1 z m -4 -1 h 3 v 10 h -3 z m 0 0"/><path fill-opacity=".349" d="m 8 3 h 1 v 10 h -1 z m 2 9 h 1 v 1 h -1 z m 0 -2 h 1 v 1 h -1 z m 0 -2 h 1 v 1 h -1 z m 0 -2 h 1 v 1 h -1 z m 0 -2 h 1 v 1 h -1 z m -1 7 h 1 v 1 h -1 z m 0 -2 h 1 v 1 h -1 z m 0 -2 h 1 v 1 h -1 z m 0 -2 h 1 v 1 h -1 z m 0 -2 h 1 v 1 h -1 z m 0 0"/></g></svg>